<?xml version="1.0" encoding="UTF-8" standalone="no"?>
<!DOCTYPE svg PUBLIC "-//W3C//DTD SVG 1.1//EN"
 "http://www.w3.org/Graphics/SVG/1.1/DTD/svg11.dtd">
<!-- Generated by graphviz version 2.42.4 (0)
 -->
<!-- Title: G Pages: 1 -->
<svg width="761pt" height="374pt"
 viewBox="0.00 0.00 761.30 373.80" xmlns="http://www.w3.org/2000/svg" xmlns:xlink="http://www.w3.org/1999/xlink">
<g id="graph0" class="graph" transform="scale(1 1) rotate(0) translate(14.4 359.4)">
<title>G</title>
<!-- users -->
<g id="node1" class="node">
<title>users</title>
<path fill="#eef3f7" stroke="#24445c" d="M581.5,-345C581.5,-345 293.5,-345 293.5,-345 287.5,-345 281.5,-339 281.5,-333 281.5,-333 281.5,-321 281.5,-321 281.5,-315 287.5,-309 293.5,-309 293.5,-309 581.5,-309 581.5,-309 587.5,-309 593.5,-315 593.5,-321 593.5,-321 593.5,-333 593.5,-333 593.5,-339 587.5,-345 581.5,-345"/>
<text text-anchor="middle" x="437.5" y="-330" font-family="Arial" font-size="10.00">Usuarios</text>
<text text-anchor="middle" x="437.5" y="-319" font-family="Arial" font-size="10.00">Supervisor | Instalador | Bodega | SSO | Calidad | Gerencia | Cliente</text>
</g>
<!-- pwa -->
<g id="node2" class="node">
<title>pwa</title>
<path fill="#eef3f7" stroke="#24445c" d="M507.5,-269C507.5,-269 367.5,-269 367.5,-269 361.5,-269 355.5,-263 355.5,-257 355.5,-257 355.5,-240 355.5,-240 355.5,-234 361.5,-228 367.5,-228 367.5,-228 507.5,-228 507.5,-228 513.5,-228 519.5,-234 519.5,-240 519.5,-240 519.5,-257 519.5,-257 519.5,-263 513.5,-269 507.5,-269"/>
<text text-anchor="middle" x="437.5" y="-257" font-family="Arial" font-size="10.00">PWA Web multiplataforma</text>
<text text-anchor="middle" x="437.5" y="-246" font-family="Arial" font-size="10.00">Next.js + TypeScript</text>
<text text-anchor="middle" x="437.5" y="-235" font-family="Arial" font-size="10.00">Windows | macOS | Android | iOS</text>
</g>
<!-- users&#45;&gt;pwa -->
<g id="edge1" class="edge">
<title>users&#45;&gt;pwa</title>
<path fill="none" stroke="#5c7182" d="M437.5,-308.64C437.5,-299.11 437.5,-287.09 437.5,-276.38"/>
<polygon fill="#5c7182" stroke="#5c7182" points="439.95,-276.22 437.5,-269.22 435.05,-276.22 439.95,-276.22"/>
</g>
<!-- api -->
<g id="node3" class="node">
<title>api</title>
<path fill="#eef3f7" stroke="#24445c" d="M429,-188C429,-188 124,-188 124,-188 118,-188 112,-182 112,-176 112,-176 112,-164 112,-164 112,-158 118,-152 124,-152 124,-152 429,-152 429,-152 435,-152 441,-158 441,-164 441,-164 441,-176 441,-176 441,-182 435,-188 429,-188"/>
<text text-anchor="middle" x="276.5" y="-173" font-family="Arial" font-size="10.00">Monolito modular de dominio</text>
<text text-anchor="middle" x="276.5" y="-162" font-family="Arial" font-size="10.00">Obras | Campo | Calidad | SST | Inventario | RRHH | Gastos | Reportes</text>
</g>
<!-- pwa&#45;&gt;api -->
<g id="edge3" class="edge">
<title>pwa&#45;&gt;api</title>
<path fill="none" stroke="#5c7182" d="M396.46,-228C372.78,-216.75 343.06,-202.63 319.12,-191.25"/>
<polygon fill="#5c7182" stroke="#5c7182" points="319.91,-188.91 312.54,-188.12 317.81,-193.34 319.91,-188.91"/>
</g>
<!-- offline -->
<g id="node8" class="node">
<title>offline</title>
<path fill="#eef3f7" stroke="#24445c" d="M720.5,-188C720.5,-188 478.5,-188 478.5,-188 472.5,-188 466.5,-182 466.5,-176 466.5,-176 466.5,-164 466.5,-164 466.5,-158 472.5,-152 478.5,-152 478.5,-152 720.5,-152 720.5,-152 726.5,-152 732.5,-158 732.5,-164 732.5,-164 732.5,-176 732.5,-176 732.5,-182 726.5,-188 720.5,-188"/>
<text text-anchor="middle" x="599.5" y="-173" font-family="Arial" font-size="10.00">Modo offline</text>
<text text-anchor="middle" x="599.5" y="-162" font-family="Arial" font-size="10.00">IndexedDB + cola idempotente + resolución de conflictos</text>
</g>
<!-- pwa&#45;&gt;offline -->
<g id="edge2" class="edge">
<title>pwa&#45;&gt;offline</title>
<path fill="none" stroke="#5c7182" d="M485.35,-224.9C508.03,-214.19 534.91,-201.5 556.88,-191.12"/>
<polygon fill="#5c7182" stroke="#5c7182" points="484.08,-222.79 478.8,-228 486.17,-227.22 484.08,-222.79"/>
<polygon fill="#5c7182" stroke="#5c7182" points="557.96,-193.33 563.24,-188.12 555.86,-188.9 557.96,-193.33"/>
</g>
<!-- jobs -->
<g id="node4" class="node">
<title>jobs</title>
<path fill="#eef3f7" stroke="#24445c" d="M293.5,-112C293.5,-112 127.5,-112 127.5,-112 121.5,-112 115.5,-106 115.5,-100 115.5,-100 115.5,-88 115.5,-88 115.5,-82 121.5,-76 127.5,-76 127.5,-76 293.5,-76 293.5,-76 299.5,-76 305.5,-82 305.5,-88 305.5,-88 305.5,-100 305.5,-100 305.5,-106 299.5,-112 293.5,-112"/>
<text text-anchor="middle" x="210.5" y="-97" font-family="Arial" font-size="10.00">Trabajos asíncronos</text>
<text text-anchor="middle" x="210.5" y="-86" font-family="Arial" font-size="10.00">PDF | alertas | sincronización | analítica</text>
</g>
<!-- api&#45;&gt;jobs -->
<g id="edge6" class="edge">
<title>api&#45;&gt;jobs</title>
<path fill="none" stroke="#5c7182" d="M261.19,-151.84C252.03,-141.56 240.28,-128.39 230.4,-117.32"/>
<polygon fill="#5c7182" stroke="#5c7182" points="232.21,-115.66 225.72,-112.07 228.56,-118.92 232.21,-115.66"/>
</g>
<!-- db -->
<g id="node5" class="node">
<title>db</title>
<path fill="#eef3f7" stroke="#24445c" d="M185,-36C185,-36 12,-36 12,-36 6,-36 0,-30 0,-24 0,-24 0,-12 0,-12 0,-6 6,0 12,0 12,0 185,0 185,0 191,0 197,-6 197,-12 197,-12 197,-24 197,-24 197,-30 191,-36 185,-36"/>
<text text-anchor="middle" x="98.5" y="-21" font-family="Arial" font-size="10.00">PostgreSQL</text>
<text text-anchor="middle" x="98.5" y="-10" font-family="Arial" font-size="10.00">transacciones, relaciones, RLS, auditoría</text>
</g>
<!-- api&#45;&gt;db -->
<g id="edge4" class="edge">
<title>api&#45;&gt;db</title>
<path fill="none" stroke="#5c7182" d="M159.26,-151.96C137.24,-143.42 116.71,-130.75 102.5,-112 87.72,-92.5 89.02,-63.54 92.56,-43.12"/>
<polygon fill="#5c7182" stroke="#5c7182" points="95,-43.36 93.93,-36.02 90.19,-42.43 95,-43.36"/>
</g>
<!-- obj -->
<g id="node6" class="node">
<title>obj</title>
<path fill="#eef3f7" stroke="#24445c" d="M420.5,-36C420.5,-36 244.5,-36 244.5,-36 238.5,-36 232.5,-30 232.5,-24 232.5,-24 232.5,-12 232.5,-12 232.5,-6 238.5,0 244.5,0 244.5,0 420.5,0 420.5,0 426.5,0 432.5,-6 432.5,-12 432.5,-12 432.5,-24 432.5,-24 432.5,-30 426.5,-36 420.5,-36"/>
<text text-anchor="middle" x="332.5" y="-21" font-family="Arial" font-size="10.00">Almacenamiento S3 compatible</text>
<text text-anchor="middle" x="332.5" y="-10" font-family="Arial" font-size="10.00">fotos, planos, certificados, SDS, informes</text>
</g>
<!-- api&#45;&gt;obj -->
<g id="edge5" class="edge">
<title>api&#45;&gt;obj</title>
<path fill="none" stroke="#5c7182" d="M292.57,-151.9C301.66,-141.23 312.39,-126.77 318.5,-112 327.65,-89.89 330.91,-62.62 332.03,-43.34"/>
<polygon fill="#5c7182" stroke="#5c7182" points="334.48,-43.22 332.37,-36.11 329.59,-42.99 334.48,-43.22"/>
</g>
<!-- ext -->
<g id="node7" class="node">
<title>ext</title>
<path fill="#eef3f7" stroke="#24445c" d="M563.5,-112C563.5,-112 393.5,-112 393.5,-112 387.5,-112 381.5,-106 381.5,-100 381.5,-100 381.5,-88 381.5,-88 381.5,-82 387.5,-76 393.5,-76 393.5,-76 563.5,-76 563.5,-76 569.5,-76 575.5,-82 575.5,-88 575.5,-88 575.5,-100 575.5,-100 575.5,-106 569.5,-112 563.5,-112"/>
<text text-anchor="middle" x="478.5" y="-97" font-family="Arial" font-size="10.00">Integraciones futuras</text>
<text text-anchor="middle" x="478.5" y="-86" font-family="Arial" font-size="10.00">correo | firma | contabilidad | BI | IA/RAG</text>
</g>
<!-- api&#45;&gt;ext -->
<g id="edge9" class="edge">
<title>api&#45;&gt;ext</title>
<path fill="none" stroke="#5c7182" d="M329.73,-149.5C359.09,-138.75 395.43,-125.43 424.85,-114.65"/>
<polygon fill="#5c7182" stroke="#5c7182" points="328.83,-147.22 323.1,-151.93 330.51,-151.82 328.83,-147.22"/>
<polygon fill="#5c7182" stroke="#5c7182" points="426.06,-116.82 431.79,-112.11 424.37,-112.22 426.06,-116.82"/>
</g>
<!-- jobs&#45;&gt;db -->
<g id="edge7" class="edge">
<title>jobs&#45;&gt;db</title>
<path fill="none" stroke="#5c7182" d="M184.52,-75.84C168.41,-65.19 147.58,-51.43 130.46,-40.12"/>
<polygon fill="#5c7182" stroke="#5c7182" points="131.53,-37.88 124.34,-36.07 128.83,-41.97 131.53,-37.88"/>
</g>
<!-- jobs&#45;&gt;obj -->
<g id="edge8" class="edge">
<title>jobs&#45;&gt;obj</title>
<path fill="none" stroke="#5c7182" d="M238.8,-75.84C256.5,-65.1 279.43,-51.19 298.18,-39.82"/>
<polygon fill="#5c7182" stroke="#5c7182" points="299.64,-41.8 304.36,-36.07 297.1,-37.61 299.64,-41.8"/>
</g>
</g>
</svg>
