<?xml version="1.0" encoding="UTF-8" standalone="no"?>
<!DOCTYPE svg PUBLIC "-//W3C//DTD SVG 1.1//EN"
 "http://www.w3.org/Graphics/SVG/1.1/DTD/svg11.dtd">
<!-- Generated by graphviz version 2.42.4 (0)
 -->
<!-- Title: G Pages: 1 -->
<svg width="1584pt" height="258pt"
 viewBox="0.00 0.00 1583.80 257.80" xmlns="http://www.w3.org/2000/svg" xmlns:xlink="http://www.w3.org/1999/xlink">
<g id="graph0" class="graph" transform="scale(1 1) rotate(0) translate(14.4 243.4)">
<title>G</title>
<!-- a -->
<g id="node1" class="node">
<title>a</title>
<path fill="#f3f6f8" stroke="#24445c" d="M134,-36C134,-36 12,-36 12,-36 6,-36 0,-30 0,-24 0,-24 0,-12 0,-12 0,-6 6,0 12,0 12,0 134,0 134,0 140,0 146,-6 146,-12 146,-12 146,-24 146,-24 146,-30 140,-36 134,-36"/>
<text text-anchor="middle" x="73" y="-20.4" font-family="Arial" font-size="9.50">Paquete aprobado</text>
<text text-anchor="middle" x="73" y="-10.4" font-family="Arial" font-size="9.50">plano + RFI + producto + MPII</text>
</g>
<!-- b -->
<g id="node2" class="node">
<title>b</title>
<path fill="#f3f6f8" stroke="#24445c" d="M322,-72C322,-72 191,-72 191,-72 185,-72 179,-66 179,-60 179,-60 179,-48 179,-48 179,-42 185,-36 191,-36 191,-36 322,-36 322,-36 328,-36 334,-42 334,-48 334,-48 334,-60 334,-60 334,-66 328,-72 322,-72"/>
<text text-anchor="middle" x="256.5" y="-56.4" font-family="Arial" font-size="9.50">Liberación del frente</text>
<text text-anchor="middle" x="256.5" y="-46.4" font-family="Arial" font-size="9.50">ATS/IPER + permisos + escaneo</text>
</g>
<!-- a&#45;&gt;b -->
<g id="edge1" class="edge">
<title>a&#45;&gt;b</title>
<path fill="none" stroke="#5c7182" d="M146.26,-32.33C154.76,-34.02 163.5,-35.75 172.14,-37.47"/>
<polygon fill="#5c7182" stroke="#5c7182" points="171.91,-39.74 178.73,-38.77 172.8,-35.28 171.91,-39.74"/>
</g>
<!-- c -->
<g id="node3" class="node">
<title>c</title>
<path fill="#f3f6f8" stroke="#24445c" d="M473,-72C473,-72 379,-72 379,-72 373,-72 367,-66 367,-60 367,-60 367,-48 367,-48 367,-42 373,-36 379,-36 379,-36 473,-36 473,-36 479,-36 485,-42 485,-48 485,-48 485,-60 485,-60 485,-66 479,-72 473,-72"/>
<text text-anchor="middle" x="426" y="-51.4" font-family="Arial" font-size="9.50">Replanteo y perforación</text>
</g>
<!-- b&#45;&gt;c -->
<g id="edge2" class="edge">
<title>b&#45;&gt;c</title>
<path fill="none" stroke="#5c7182" d="M334.39,-54C342.85,-54 351.41,-54 359.72,-54"/>
<polygon fill="#5c7182" stroke="#5c7182" points="360.13,-56.28 366.63,-54 360.13,-51.73 360.13,-56.28"/>
</g>
<!-- d -->
<g id="node4" class="node">
<title>d</title>
<path fill="#f3f6f8" stroke="#24445c" d="M613,-116C613,-116 530,-116 530,-116 524,-116 518,-110 518,-104 518,-104 518,-92 518,-92 518,-86 524,-80 530,-80 530,-80 613,-80 613,-80 619,-80 625,-86 625,-92 625,-92 625,-104 625,-104 625,-110 619,-116 613,-116"/>
<text text-anchor="middle" x="571.5" y="-95.4" font-family="Arial" font-size="9.50">Limpieza según MPII</text>
</g>
<!-- c&#45;&gt;d -->
<g id="edge3" class="edge">
<title>c&#45;&gt;d</title>
<path fill="none" stroke="#5c7182" d="M485.37,-71.9C493.98,-74.54 502.87,-77.26 511.5,-79.91"/>
<polygon fill="#5c7182" stroke="#5c7182" points="510.85,-82.09 517.73,-81.82 512.18,-77.74 510.85,-82.09"/>
</g>
<!-- n -->
<g id="node9" class="node">
<title>n</title>
<path fill="#fff0e6" stroke="#a54b1a" d="M1543,-116C1543,-116 1426,-116 1426,-116 1420,-116 1414,-110 1414,-104 1414,-104 1414,-92 1414,-92 1414,-86 1420,-80 1426,-80 1426,-80 1543,-80 1543,-80 1549,-80 1555,-86 1555,-92 1555,-92 1555,-104 1555,-104 1555,-110 1549,-116 1543,-116"/>
<text text-anchor="middle" x="1484.5" y="-95.4" font-family="Arial" font-size="9.50">NCR / RFI / acción correctiva</text>
</g>
<!-- c&#45;&gt;n -->
<g id="edge8" class="edge">
<title>c&#45;&gt;n</title>
<path fill="none" stroke="#5c7182" d="M485.27,-49.87C511.33,-48.35 542.44,-47 570.5,-47 570.5,-47 570.5,-47 1276.5,-47 1330.36,-47 1389.88,-63.48 1431.22,-77.71"/>
<polygon fill="#5c7182" stroke="#5c7182" points="1430.55,-79.88 1437.44,-79.88 1432.05,-75.59 1430.55,-79.88"/>
<text text-anchor="middle" x="962" y="-50.8" font-family="Times,serif" font-size="14.00">desviación</text>
</g>
<!-- e -->
<g id="node5" class="node">
<title>e</title>
<path fill="#f3f6f8" stroke="#24445c" d="M896,-165C896,-165 810,-165 810,-165 804,-165 798,-159 798,-153 798,-153 798,-141 798,-141 798,-135 804,-129 810,-129 810,-129 896,-129 896,-129 902,-129 908,-135 908,-141 908,-141 908,-153 908,-153 908,-159 902,-165 896,-165"/>
<text text-anchor="middle" x="853" y="-144.4" font-family="Arial" font-size="9.50">Inyección / colocación</text>
</g>
<!-- d&#45;&gt;e -->
<g id="edge4" class="edge">
<title>d&#45;&gt;e</title>
<path fill="none" stroke="#5c7182" d="M625.15,-110.71C630.49,-111.88 635.85,-113 641,-114 691.26,-123.79 748.71,-132.62 790.95,-138.68"/>
<polygon fill="#5c7182" stroke="#5c7182" points="790.84,-140.96 797.6,-139.63 791.49,-136.46 790.84,-140.96"/>
</g>
<!-- d&#45;&gt;n -->
<g id="edge9" class="edge">
<title>d&#45;&gt;n</title>
<path fill="none" stroke="#5c7182" d="M625.04,-98C681.22,-98 772.91,-98 852,-98 852,-98 852,-98 1276.5,-98 1319.64,-98 1367.85,-98 1406.88,-98"/>
<polygon fill="#5c7182" stroke="#5c7182" points="1407.05,-100.28 1413.55,-98 1407.05,-95.73 1407.05,-100.28"/>
<text text-anchor="middle" x="1066.5" y="-101.8" font-family="Times,serif" font-size="14.00">desviación</text>
</g>
<!-- f -->
<g id="node6" class="node">
<title>f</title>
<path fill="#f3f6f8" stroke="#24445c" d="M1105,-211C1105,-211 1028,-211 1028,-211 1022,-211 1016,-205 1016,-199 1016,-199 1016,-187 1016,-187 1016,-181 1022,-175 1028,-175 1028,-175 1105,-175 1105,-175 1111,-175 1117,-181 1117,-187 1117,-187 1117,-199 1117,-199 1117,-205 1111,-211 1105,-211"/>
<text text-anchor="middle" x="1066.5" y="-190.4" font-family="Arial" font-size="9.50">Curado y protección</text>
</g>
<!-- e&#45;&gt;f -->
<g id="edge5" class="edge">
<title>e&#45;&gt;f</title>
<path fill="none" stroke="#5c7182" d="M908.19,-158.79C939.16,-165.52 977.93,-173.95 1009.24,-180.76"/>
<polygon fill="#5c7182" stroke="#5c7182" points="1008.96,-183.03 1015.8,-182.19 1009.93,-178.59 1008.96,-183.03"/>
</g>
<!-- e&#45;&gt;n -->
<g id="edge10" class="edge">
<title>e&#45;&gt;n</title>
<path fill="none" stroke="#5c7182" d="M908.25,-145.94C1006.34,-143.53 1219.58,-136.02 1398,-114 1400.87,-113.65 1403.78,-113.26 1406.72,-112.84"/>
<polygon fill="#5c7182" stroke="#5c7182" points="1407.53,-115.02 1413.62,-111.81 1406.86,-110.52 1407.53,-115.02"/>
<text text-anchor="middle" x="1171" y="-139.8" font-family="Times,serif" font-size="14.00">desviación</text>
</g>
<!-- g -->
<g id="node7" class="node">
<title>g</title>
<path fill="#f3f6f8" stroke="#24445c" d="M1314,-211C1314,-211 1237,-211 1237,-211 1231,-211 1225,-205 1225,-199 1225,-199 1225,-187 1225,-187 1225,-181 1231,-175 1237,-175 1237,-175 1314,-175 1314,-175 1320,-175 1326,-181 1326,-187 1326,-187 1326,-199 1326,-199 1326,-205 1320,-211 1314,-211"/>
<text text-anchor="middle" x="1275.5" y="-190.4" font-family="Arial" font-size="9.50">Inspección / ensayo</text>
</g>
<!-- f&#45;&gt;g -->
<g id="edge6" class="edge">
<title>f&#45;&gt;g</title>
<path fill="none" stroke="#5c7182" d="M1117.08,-193C1147.57,-193 1186.71,-193 1218.34,-193"/>
<polygon fill="#5c7182" stroke="#5c7182" points="1218.46,-195.28 1224.96,-193 1218.46,-190.73 1218.46,-195.28"/>
</g>
<!-- h -->
<g id="node8" class="node">
<title>h</title>
<path fill="#f3f6f8" stroke="#24445c" d="M1535,-229C1535,-229 1434,-229 1434,-229 1428,-229 1422,-223 1422,-217 1422,-217 1422,-205 1422,-205 1422,-199 1428,-193 1434,-193 1434,-193 1535,-193 1535,-193 1541,-193 1547,-199 1547,-205 1547,-205 1547,-217 1547,-217 1547,-223 1541,-229 1535,-229"/>
<text text-anchor="middle" x="1484.5" y="-213.4" font-family="Arial" font-size="9.50">Cierre documental</text>
<text text-anchor="middle" x="1484.5" y="-203.4" font-family="Arial" font-size="9.50">trazabilidad + fotos + lote</text>
</g>
<!-- g&#45;&gt;h -->
<g id="edge7" class="edge">
<title>g&#45;&gt;h</title>
<path fill="none" stroke="#5c7182" d="M1326.08,-197.31C1352.77,-199.63 1386.09,-202.53 1415.2,-205.06"/>
<polygon fill="#5c7182" stroke="#5c7182" points="1415.05,-207.33 1421.73,-205.63 1415.45,-202.8 1415.05,-207.33"/>
</g>
<!-- g&#45;&gt;n -->
<g id="edge11" class="edge">
<title>g&#45;&gt;n</title>
<path fill="none" stroke="#5c7182" d="M1326.24,-181.48C1348.75,-175.36 1375.32,-166.84 1398,-156 1418.36,-146.27 1439.35,-132.1 1455.44,-120.2"/>
<polygon fill="#5c7182" stroke="#5c7182" points="1456.86,-121.98 1460.7,-116.26 1454.13,-118.34 1456.86,-121.98"/>
<text text-anchor="middle" x="1370" y="-179.8" font-family="Times,serif" font-size="14.00">rechazo</text>
</g>
<!-- n&#45;&gt;a -->
<g id="edge12" class="edge">
<title>n&#45;&gt;a</title>
<path fill="none" stroke="#5c7182" d="M1460.49,-79.85C1423.8,-52.78 1348.8,-5 1276.5,-5 255.5,-5 255.5,-5 255.5,-5 221.88,-5 184.84,-7.25 153.04,-9.87"/>
<polygon fill="#5c7182" stroke="#5c7182" points="152.62,-7.62 146.34,-10.44 153.01,-12.16 152.62,-7.62"/>
<text text-anchor="middle" x="711.5" y="-8.8" font-family="Times,serif" font-size="14.00">revisión/aprobación</text>
</g>
</g>
</svg>
